<?xml version="1.0" encoding="UTF-8" standalone="no"?>
<svg
   xmlns:dc="http://purl.org/dc/elements/1.1/"
   xmlns:cc="http://creativecommons.org/ns#"
   xmlns:rdf="http://www.w3.org/1999/02/22-rdf-syntax-ns#"
   xmlns:svg="http://www.w3.org/2000/svg"
   xmlns="http://www.w3.org/2000/svg"
   xmlns:xlink="http://www.w3.org/1999/xlink"
   xmlns:sodipodi="http://sodipodi.sourceforge.net/DTD/sodipodi-0.dtd"
   xmlns:inkscape="http://www.inkscape.org/namespaces/inkscape"
   width="207.40541mm"
   height="62.085735mm"
   viewBox="0 0 207.40541 62.085735"
   version="1.1"
   id="svg8"
   inkscape:version="1.0.2 (e86c8708, 2021-01-15)"
   sodipodi:docname="DitherPunk.svg"
   inkscape:export-filename="/Users/funks/Desktop/DitherPunk.png"
   inkscape:export-xdpi="368.2005"
   inkscape:export-ydpi="368.2005">
  <defs
     id="defs2">
    <linearGradient
       inkscape:collect="always"
       id="linearGradient863">
      <stop
         style="stop-color:#000000;stop-opacity:1"
         offset="0"
         id="stop859" />
      <stop
         style="stop-color:#ffffff;stop-opacity:1"
         offset="1"
         id="stop861" />
    </linearGradient>
    <rect
       x="22.367517"
       y="35.741909"
       width="177.32599"
       height="53.728161"
       id="rect945" />
    <linearGradient
       inkscape:collect="always"
       xlink:href="#linearGradient863"
       id="linearGradient865"
       x1="179.36191"
       y1="7.3034058"
       x2="179.60094"
       y2="104.63039"
       gradientUnits="userSpaceOnUse"
       gradientTransform="matrix(0.95482357,0,0,0.54173806,-206.13165,20.457491)" />
    <rect
       x="22.367517"
       y="35.741909"
       width="177.32599"
       height="53.728161"
       id="rect945-5" />
    <rect
       x="22.367517"
       y="35.741909"
       width="177.32599"
       height="53.728161"
       id="rect1052" />
    <rect
       x="22.367517"
       y="35.741909"
       width="177.32599"
       height="53.728161"
       id="rect945-5-2" />
    <rect
       x="22.367517"
       y="35.741909"
       width="177.32599"
       height="53.728161"
       id="rect1116" />
  </defs>
  <sodipodi:namedview
     id="base"
     pagecolor="#ffffff"
     bordercolor="#666666"
     borderopacity="1.0"
     inkscape:pageopacity="0.0"
     inkscape:pageshadow="2"
     inkscape:zoom="1.159286"
     inkscape:cx="341.80112"
     inkscape:cy="239.45459"
     inkscape:document-units="mm"
     inkscape:current-layer="layer1"
     inkscape:document-rotation="0"
     showgrid="false"
     inkscape:window-width="1748"
     inkscape:window-height="1006"
     inkscape:window-x="403"
     inkscape:window-y="378"
     inkscape:window-maximized="0"
     inkscape:snap-others="false" />
  <metadata
     id="metadata5">
    <rdf:RDF>
      <cc:Work
         rdf:about="">
        <dc:format>image/svg+xml</dc:format>
        <dc:type
           rdf:resource="http://purl.org/dc/dcmitype/StillImage" />
        <dc:title />
      </cc:Work>
    </rdf:RDF>
  </metadata>
  <g
     inkscape:label="Layer 1"
     inkscape:groupmode="layer"
     id="layer1"
     transform="translate(-1.3683472,-18.958439)">
    <rect
       style="fill:url(#linearGradient865);fill-opacity:1;stroke-width:0.00190291;stroke-miterlimit:5.55555"
       id="rect849"
       width="207.40541"
       height="62.085735"
       x="-208.77376"
       y="18.958439"
       transform="scale(-1,1)"
       inkscape:export-xdpi="367"
       inkscape:export-ydpi="367" />
    <text
       xml:space="preserve"
       id="text943-8-2"
       style="font-style:normal;font-variant:normal;font-weight:normal;font-stretch:normal;font-size:25.39999999999999858px;line-height:1.25;font-family:BlackwoodCastle;-inkscape-font-specification:BlackwoodCastle;white-space:pre;shape-inside:url(#rect945-5-2);fill:#000000;fill-opacity:1;stroke:#000000;stroke-width:0.999952;stroke-miterlimit:4;stroke-dasharray:none;"
       transform="matrix(1.0640513,0,0,1.0640513,47.322922,-3.468504)"><tspan
         x="22.367188"
         y="58.357785"><tspan
           style="font-style:normal;font-variant:normal;font-weight:normal;font-stretch:normal;font-size:25.4px;font-family:BlackwoodCastle;-inkscape-font-specification:BlackwoodCastle;fill:#000000;stroke:#000000;stroke-width:0.999952;stroke-miterlimit:4;stroke-dasharray:none">DitherPunk.jl</tspan></tspan></text>
    <g
       id="g875"
       transform="translate(1.2348784,-1.9038942)">
      <g
         id="g941"
         transform="matrix(0.54173925,0,0,0.54173925,-21.642763,-6.715875)">
        <path
           style="fill:#389723;fill-opacity:1;stroke-width:0.0896325"
           d="m 100.69636,109.61828 c -2.014723,-0.26062 -3.913938,-0.82726 -5.037292,-1.50289 -0.283552,-0.17056 -0.79538,-0.59596 -1.137375,-0.94536 -0.74323,-0.75932 -0.959476,-1.18911 -1.820339,-3.61814 -0.706274,-1.99283 -1.167279,-3.02262 -1.601836,-3.578169 -0.669944,-0.856488 -1.80645,-1.599878 -3.533963,-2.311559 -0.973087,-0.40088 -1.667246,-0.886672 -2.374474,-1.661726 -1.255117,-1.375463 -2.191368,-3.320528 -2.655562,-5.516938 -0.938184,-4.439112 -1.406883,-13.801056 -0.852096,-17.019771 0.613893,-3.561613 2.143252,-7.171932 4.193895,-9.900384 0.687868,-0.915235 3.929534,-4.266547 4.906836,-5.07281 1.976717,-1.630762 5.619171,-3.440588 8.408273,-4.177812 1.720523,-0.454777 2.874123,-0.57761 4.892243,-0.520923 1.94738,0.0547 3.16274,0.253308 4.86209,0.794534 1.98552,0.632366 4.52626,1.856085 6.12553,2.950281 2.55505,1.748136 5.30587,4.593614 7.09839,7.342644 1.41336,2.167541 2.72127,5.381834 3.24248,7.968642 0.42739,2.121152 0.33885,9.21049 -0.17475,13.993517 -0.36497,3.398785 -1.21438,6.25672 -2.4105,8.11033 -0.44749,0.693481 -1.36931,1.638687 -2.00101,2.051787 -0.28622,0.187174 -1.0662,0.594354 -1.73331,0.904844 -1.43474,0.667779 -2.03677,1.060474 -2.73772,1.785764 -0.74821,0.774199 -0.93952,1.173179 -1.97468,4.118029 -0.53391,1.51892 -1.0859,2.67045 -1.53652,3.20546 -1.01636,1.20673 -2.94718,2.06551 -5.66158,2.51813 -1.24516,0.20763 -5.13681,0.25713 -6.48673,0.0825 z m 3.68459,-8.6829 c 1.95496,0.042 2.52334,-0.15314 2.95146,-1.013409 0.32661,-0.656312 0.23972,-1.359999 -0.38807,-3.143132 -0.52083,-1.479287 -1.43489,-3.664672 -1.70366,-4.073163 -0.38053,-0.578347 -0.96612,-0.872861 -1.73553,-0.872861 -1.0741,0 -1.57555,0.551494 -2.43481,2.677831 -0.62436,1.545001 -1.347443,3.724061 -1.422723,4.28743 -0.0797,0.596605 0.13986,1.149255 0.633673,1.594864 0.58356,0.52658 1.06593,0.66487 2.03285,0.58278 0.4382,-0.0372 1.36827,-0.0554 2.06681,-0.0403 z m -9.433723,-7.366625 c 1.507306,-0.523379 2.72667,-1.333932 3.39635,-2.25766 1.18436,-1.633638 1.721613,-3.84033 1.46048,-5.998665 -0.22534,-1.862511 -0.61864,-2.510605 -1.9046,-3.138444 -1.380467,-0.67398 -2.740585,-0.867709 -5.588795,-0.796044 -1.478537,0.0372 -1.996753,0.08437 -2.531794,0.230451 -1.879144,0.513046 -3.192716,1.409244 -3.913325,2.669903 -0.121064,0.211782 -0.313916,0.691349 -0.428554,1.065702 -0.182876,0.59717 -0.208287,0.858729 -0.207175,2.132689 0.0012,1.581985 0.109058,2.158904 0.550583,2.949462 0.956843,1.71333 3.165808,2.926469 6.176156,3.391891 0.146076,0.02257 0.723701,0.02957 1.283633,0.01552 0.821649,-0.02062 1.150975,-0.0717 1.707041,-0.264791 z m 21.354753,0.04519 c 3.26472,-0.728704 5.26472,-2.442418 5.62767,-4.822079 0.14772,-0.968575 0.058,-2.788241 -0.17492,-3.545171 -0.78406,-2.548602 -3.47353,-3.923478 -7.66658,-3.919207 -3.43737,0.0035 -5.68301,0.76612 -6.31508,2.144604 -0.56246,1.226668 -0.62949,3.97568 -0.13525,5.547383 0.5177,1.646331 1.79508,3.197683 3.26337,3.963301 0.82003,0.427588 1.40418,0.651357 2.08703,0.799483 0.58411,0.126704 2.4068,0.03413 3.31376,-0.168314 z"
           id="path847"
           sodipodi:nodetypes="sssssssssssssssssssssssssssssssssssscsssssssssscccsssssssss" />
        <g
           id="g935">
          <path
             style="fill:#ca3a33;fill-opacity:1;stroke-width:0.0896325"
             d="m 70.145258,162.53282 c -2.01473,-0.26062 -3.913945,-0.82726 -5.037299,-1.50289 -0.283552,-0.17056 -0.79538,-0.59596 -1.137375,-0.94536 -0.74323,-0.75932 -0.959476,-1.18911 -1.820339,-3.61814 -0.706274,-1.99283 -1.167279,-3.02262 -1.601836,-3.57817 -0.669944,-0.85649 -1.80645,-1.59988 -3.533963,-2.31156 -0.973087,-0.40088 -1.667246,-0.88667 -2.374474,-1.66172 -1.255117,-1.37547 -2.191368,-3.32053 -2.655562,-5.51694 -0.938184,-4.43911 -1.406883,-13.80106 -0.852096,-17.01977 0.613893,-3.56162 2.143252,-7.17193 4.193895,-9.90039 0.687868,-0.91523 3.929534,-4.26654 4.906836,-5.07281 1.976717,-1.63076 5.619171,-3.44058 8.408273,-4.17781 1.72053,-0.45478 2.87413,-0.57761 4.89225,-0.52092 1.94738,0.0547 3.16274,0.25331 4.86209,0.79453 1.98552,0.63237 4.52626,1.85609 6.12553,2.95028 2.55505,1.74814 5.30587,4.59362 7.09839,7.34265 1.41336,2.16754 2.72127,5.38183 3.24248,7.96864 0.42739,2.12115 0.33885,9.21049 -0.17475,13.99352 -0.36497,3.39878 -1.21438,6.25672 -2.4105,8.11033 -0.44749,0.69348 -1.36931,1.63868 -2.00101,2.05178 -0.28622,0.18718 -1.0662,0.59436 -1.73331,0.90485 -1.43474,0.66778 -2.03677,1.06047 -2.73772,1.78576 -0.74821,0.7742 -0.93952,1.17318 -1.97468,4.11803 -0.53391,1.51892 -1.0859,2.67045 -1.53652,3.20546 -1.01636,1.20673 -2.94718,2.06551 -5.66158,2.51813 -1.24516,0.20763 -5.13681,0.25713 -6.48673,0.0825 z m 3.68459,-8.6829 c 1.95496,0.042 2.52334,-0.15314 2.95146,-1.01341 0.32661,-0.65631 0.23972,-1.36 -0.38807,-3.14313 -0.52083,-1.47929 -1.43489,-3.66467 -1.70366,-4.07316 -0.38053,-0.57835 -0.96612,-0.87286 -1.73553,-0.87286 -1.0741,0 -1.57555,0.55149 -2.43481,2.67783 -0.62436,1.545 -1.34745,3.72406 -1.42273,4.28743 -0.0797,0.5966 0.13986,1.14925 0.63368,1.59486 0.58356,0.52658 1.06593,0.66487 2.03285,0.58278 0.4382,-0.0372 1.36827,-0.0554 2.06681,-0.0403 z m -9.43373,-7.36662 c 1.507306,-0.52338 2.72667,-1.33394 3.39635,-2.25766 1.18436,-1.63364 1.72162,-3.84033 1.46048,-5.99867 -0.22534,-1.86251 -0.61864,-2.5106 -1.9046,-3.13844 -1.380467,-0.67398 -2.740585,-0.86771 -5.588795,-0.79605 -1.478537,0.0372 -1.996753,0.0844 -2.531794,0.23045 -1.879144,0.51305 -3.192716,1.40925 -3.913325,2.66991 -0.121064,0.21178 -0.313916,0.69135 -0.428554,1.0657 -0.182876,0.59717 -0.208287,0.85873 -0.207175,2.13269 0.0012,1.58198 0.109058,2.1589 0.550583,2.94946 0.956843,1.71333 3.165808,2.92647 6.176156,3.39189 0.146076,0.0226 0.723701,0.0296 1.283633,0.0155 0.821649,-0.0206 1.150975,-0.0717 1.707041,-0.26479 z m 21.35476,0.0452 c 3.26472,-0.72871 5.26472,-2.44242 5.62767,-4.82208 0.14772,-0.96858 0.058,-2.78824 -0.17492,-3.54517 -0.78406,-2.54861 -3.47353,-3.92348 -7.66658,-3.91921 -3.43737,0.004 -5.68301,0.76612 -6.31508,2.1446 -0.56246,1.22667 -0.62949,3.97568 -0.13525,5.54739 0.5177,1.64633 1.79508,3.19768 3.26337,3.9633 0.82003,0.42758 1.40418,0.65135 2.08703,0.79948 0.58411,0.1267 2.4068,0.0341 3.31376,-0.16831 z"
             id="path847-3"
             sodipodi:nodetypes="sssssssssssssssssssssssssssssssssssscsssssssssscccsssssssss" />
          <path
             style="fill:#9457b0;fill-opacity:1;stroke-width:0.0896325"
             d="m 131.24747,162.53282 c -2.01473,-0.26062 -3.91395,-0.82726 -5.0373,-1.50289 -0.28355,-0.17056 -0.79538,-0.59596 -1.13738,-0.94536 -0.74323,-0.75932 -0.95947,-1.18911 -1.82034,-3.61814 -0.70627,-1.99283 -1.16728,-3.02262 -1.60183,-3.57817 -0.66995,-0.85649 -1.80645,-1.59988 -3.53397,-2.31156 -0.97308,-0.40088 -1.66724,-0.88667 -2.37447,-1.66172 -1.25512,-1.37547 -2.19137,-3.32053 -2.65556,-5.51694 -0.93819,-4.43911 -1.40688,-13.80106 -0.8521,-17.01977 0.6139,-3.56162 2.14325,-7.17193 4.1939,-9.90039 0.68787,-0.91523 3.92953,-4.26654 4.90683,-5.07281 1.97672,-1.63076 5.61917,-3.44058 8.40828,-4.17781 1.72053,-0.45478 2.87413,-0.57761 4.89225,-0.52092 1.94738,0.0547 3.16274,0.25331 4.86209,0.79453 1.98552,0.63237 4.52626,1.85609 6.12553,2.95028 2.55505,1.74814 5.30587,4.59362 7.09839,7.34265 1.41336,2.16754 2.72127,5.38183 3.24248,7.96864 0.42739,2.12115 0.33885,9.21049 -0.17475,13.99352 -0.36497,3.39878 -1.21438,6.25672 -2.4105,8.11033 -0.44749,0.69348 -1.36931,1.63868 -2.00101,2.05178 -0.28622,0.18718 -1.0662,0.59436 -1.73331,0.90485 -1.43474,0.66778 -2.03677,1.06047 -2.73772,1.78576 -0.74821,0.7742 -0.93952,1.17318 -1.97468,4.11803 -0.53391,1.51892 -1.0859,2.67045 -1.53652,3.20546 -1.01636,1.20673 -2.94718,2.06551 -5.66158,2.51813 -1.24516,0.20763 -5.13681,0.25713 -6.48673,0.0825 z m 3.68459,-8.6829 c 1.95496,0.042 2.52334,-0.15314 2.95146,-1.01341 0.32661,-0.65631 0.23972,-1.36 -0.38807,-3.14313 -0.52083,-1.47929 -1.43489,-3.66467 -1.70366,-4.07316 -0.38053,-0.57835 -0.96612,-0.87286 -1.73553,-0.87286 -1.0741,0 -1.57555,0.55149 -2.43481,2.67783 -0.62436,1.545 -1.34745,3.72406 -1.42273,4.28743 -0.0797,0.5966 0.13986,1.14925 0.63368,1.59486 0.58356,0.52658 1.06593,0.66487 2.03285,0.58278 0.4382,-0.0372 1.36827,-0.0554 2.06681,-0.0403 z m -9.43373,-7.36662 c 1.5073,-0.52338 2.72667,-1.33394 3.39635,-2.25766 1.18436,-1.63364 1.72162,-3.84033 1.46048,-5.99867 -0.22534,-1.86251 -0.61864,-2.5106 -1.9046,-3.13844 -1.38047,-0.67398 -2.74059,-0.86771 -5.5888,-0.79605 -1.47854,0.0372 -1.99675,0.0844 -2.53179,0.23045 -1.87915,0.51305 -3.19272,1.40925 -3.91333,2.66991 -0.12106,0.21178 -0.31391,0.69135 -0.42855,1.0657 -0.18288,0.59717 -0.20829,0.85873 -0.20718,2.13269 10e-4,1.58198 0.10906,2.1589 0.55059,2.94946 0.95684,1.71333 3.1658,2.92647 6.17615,3.39189 0.14608,0.0226 0.7237,0.0296 1.28364,0.0155 0.82164,-0.0206 1.15097,-0.0717 1.70704,-0.26479 z m 21.35476,0.0452 c 3.26472,-0.72871 5.26472,-2.44242 5.62767,-4.82208 0.14772,-0.96858 0.058,-2.78824 -0.17492,-3.54517 -0.78406,-2.54861 -3.47353,-3.92348 -7.66658,-3.91921 -3.43737,0.004 -5.68301,0.76612 -6.31508,2.1446 -0.56246,1.22667 -0.62949,3.97568 -0.13525,5.54739 0.5177,1.64633 1.79508,3.19768 3.26337,3.9633 0.82003,0.42758 1.40418,0.65135 2.08703,0.79948 0.58411,0.1267 2.4068,0.0341 3.31376,-0.16831 z"
             id="path847-3-1"
             sodipodi:nodetypes="sssssssssssssssssssssssssssssssssssscsssssssssscccsssssssss" />
        </g>
      </g>
      <text
         xml:space="preserve"
         id="text943"
         style="font-style:normal;font-variant:normal;font-weight:normal;font-stretch:normal;font-size:25.39999999999999858px;line-height:1.25;font-family:BlackwoodCastle;-inkscape-font-specification:BlackwoodCastle;white-space:pre;shape-inside:url(#rect945);fill:#ffffff;fill-opacity:1;stroke:none;"
         transform="matrix(1.0640513,0,0,1.0640513,45.135744,-2.6229432)"><tspan
           x="22.367188"
           y="58.357785"><tspan
             style="font-style:normal;font-variant:normal;font-weight:normal;font-stretch:normal;font-size:25.4px;font-family:BlackwoodCastle;-inkscape-font-specification:BlackwoodCastle;fill:#ffffff">DitherPunk.jl</tspan></tspan></text>
      <text
         xml:space="preserve"
         id="text943-8"
         style="font-style:normal;font-variant:normal;font-weight:normal;font-stretch:normal;font-size:25.39999999999999858px;line-height:1.25;font-family:BlackwoodCastle;-inkscape-font-specification:BlackwoodCastle;white-space:pre;shape-inside:url(#rect945-5);fill:#ffffff;fill-opacity:1;stroke:none;"
         transform="matrix(1.0640513,0,0,1.0640513,45.189435,-2.7720077)"><tspan
           x="22.367188"
           y="58.357785"><tspan
             style="font-style:normal;font-variant:normal;font-weight:normal;font-stretch:normal;font-size:25.4px;font-family:BlackwoodCastle;-inkscape-font-specification:BlackwoodCastle;fill:#ffffff">DitherPunk.jl</tspan></tspan></text>
    </g>
  </g>
</svg>
